<svg width="200" height="200" viewBox="0 0 200 200" fill="none" xmlns="http://www.w3.org/2000/svg">
<g clip-path="url(#clip0_599_207)">
<rect width="200" height="200" fill="#222224"/>
<path d="M101.816 53.151C101.816 51.0152 103.547 49.2838 105.683 49.2838H145.298C147.434 49.2838 149.166 51.0152 149.166 53.151V98.5551H101.816V53.151Z" fill="#0085FF"/>
<path d="M152.65 3.86719C152.65 1.7314 154.382 0 156.517 0H196.133C198.269 0 200 1.7314 200 3.86719V49.2712H152.65V3.86719Z" fill="#0085FF"/>
<path d="M50.8342 3.89356C50.8342 1.75777 52.5656 0.0263672 54.7014 0.0263672H94.3169C96.4527 0.0263672 98.1841 1.75777 98.1841 3.89355V49.2976H50.8342V3.89356Z" fill="#0085FF"/>
<path d="M0 102.443C0 100.308 1.7314 98.5763 3.86719 98.5763H43.4827C45.6185 98.5763 47.3499 100.308 47.3499 102.443V147.848H0V102.443Z" fill="#0085FF"/>
<rect x="101.816" y="147.828" width="47.3499" height="49.2712" fill="#00CF5F"/>
<rect x="152.65" y="147.825" width="47.3499" height="49.2712" fill="#FF9900"/>
<rect x="50.8342" y="147.851" width="47.3499" height="49.2712" fill="#FF9900"/>
<rect y="147.851" width="47.3499" height="49.2712" fill="#FF9900"/>
<rect x="101.669" y="97.8578" width="47.3499" height="49.2712" fill="#00D1FF"/>
<rect x="101.669" y="97.8578" width="47.3499" height="49.2712" fill="#00D1FF"/>
<rect x="101.816" y="98.5559" width="47.3499" height="49.2712" fill="#00D1FF"/>
<rect x="152.65" y="49.2749" width="47.3499" height="49.2712" fill="#00D1FF"/>
<rect x="50.8342" y="49.3015" width="47.3499" height="49.2712" fill="#00D1FF"/>
<rect x="152.65" y="98.5498" width="47.3499" height="49.2712" fill="#00CF5F"/>
<rect x="50.8342" y="98.5763" width="47.3499" height="49.2712" fill="#00CF5F"/>
</g>
<defs>
<clipPath id="clip0_599_207">
<rect width="200" height="200" fill="white"/>
</clipPath>
</defs>
</svg>
